# xmcd CD database file
#
# Track frame offsets:
#	150
#	21812
#	42067
#	60818
#	76809
#	97275
#	116139
#	137929
#	164127
#	184591
#	202771
#	224743
#	275457
#
# Disc length: 4440 seconds
#
# Revision: 2
# Processed by: cddbd v1.5.1PL0 Copyright (c) Steve Scherf et al.
# Submitted via: CDex 1.51
#
DISCID=ba11560d
DTITLE=エレファントカシマシ - 俺の道
DYEAR=2003
DGENRE=Rock
TTITLE0=生命賛歌
TTITLE1=俺の道
TTITLE2=ハロー人生!!
TTITLE3=どこへ?
TTITLE4=季節はずれの男
TTITLE5=勉強オレ
TTITLE6=ラスト・ゲーム
TTITLE7=覚醒(オマエに言った)
TTITLE8=ろくでなし
TTITLE9=オレの中の宇宙
TTITLE10=ロック屋(五月雨東京)
TTITLE11=心の生贄
TTITLE12=Data Track
EXTD=YEAR: 2003
EXTT0=
EXTT1=
EXTT2=
EXTT3=
EXTT4=
EXTT5=
EXTT6=
EXTT7=
EXTT8=
EXTT9=
EXTT10=
EXTT11=
EXTT12=
PLAYORDER=
